<?xml version="1.0" standalone="no"?>
<!DOCTYPE svg PUBLIC "-//W3C//DTD SVG 20010904//EN"
 "http://www.w3.org/TR/2001/REC-SVG-20010904/DTD/svg10.dtd">
<svg version="1.0" xmlns="http://www.w3.org/2000/svg"
 width="50.000000pt" height="50.000000pt" viewBox="0 0 50.000000 50.000000"
 preserveAspectRatio="xMidYMid meet">

<g transform="translate(0.000000,50.000000) scale(0.100000,-0.100000)"
fill="#000000" stroke="none">
<path d="M155 456 c-60 -28 -87 -56 -114 -116 -36 -79 -19 -183 42 -249 33
-36 115 -71 167 -71 80 0 201 73 171 103 -9 9 -15 9 -29 -1 -101 -73 -167 -81
-243 -29 -116 78 -116 236 0 314 76 52 142 44 243 -29 14 -10 20 -10 29 -1 30
30 -91 103 -171 103 -26 0 -66 -10 -95 -24z"/>
<path d="M375 329 c-4 -6 3 -21 15 -34 l23 -24 -99 -3 c-80 -2 -99 -6 -99 -18
0 -12 19 -16 99 -18 l99 -3 -23 -25 c-19 -19 -21 -27 -12 -36 10 -10 23 -2 59
35 l47 47 -44 45 c-46 47 -55 52 -65 34z"/>
</g>
</svg>
